<svg xmlns="http://www.w3.org/2000/svg" xml:space="preserve" style="fill-rule:evenodd;clip-rule:evenodd;stroke-linejoin:round;stroke-miterlimit:2" viewBox="0 0 1204 975">
  <path d="M118.08 297.44H86.4v94.265H19.872V164h97.152c14.784 0 26.488 2.397 35.112 7.192 8.624 4.795 12.936 12.294 12.936 22.495v73.454c0 9.793-4.4 17.292-13.2 22.495-8.8 5.203-20.064 7.804-33.792 7.804ZM86.4 193.381v73.148h4.752c5.28 0 7.92-1.939 7.92-5.815v-61.518c0-3.876-2.64-5.815-7.92-5.815H86.4Zm168.432 63.66v134.664h-64.944V227.047h63.888v14.385c11.264-10.202 23.584-15.303 36.96-15.303h3.696c8.8 0 15.488 1.531 20.064 4.591 4.576 3.061 6.864 6.937 6.864 11.63v59.375h-57.024v-44.684c0-2.449-1.584-3.673-4.752-3.673-3.168 0-4.752 1.224-4.752 3.673Zm155.76-69.781v35.503h-64.944V187.26h64.944Zm0 39.787v164.658h-64.944V227.047h64.944Zm25.344 164.658V227.047h63.888v14.385c13.024-10.61 27.456-15.915 43.296-15.915h2.64c11.968 0 20.592 2.245 25.872 6.733 5.28 4.489 7.92 9.386 7.92 14.691v144.764H514.08V258.877c0-3.468-2.288-5.203-6.864-5.203-4.224 0-6.336 1.837-6.336 5.509v132.522h-64.944Zm244.464 2.449h-13.728c-19.008 0-34.056-2.806-45.144-8.417-11.088-5.611-16.632-14.231-16.632-25.861V259.489c0-10.406 4.928-18.822 14.784-25.249 9.856-6.427 25.52-9.641 46.992-9.641h14.784c38.368 0 57.552 10.304 57.552 30.912v40.705H680.4v-41.624c0-2.652-1.76-3.978-5.28-3.978-3.52 0-5.28 1.326-5.28 3.978V362.63c0 2.857 1.76 4.285 5.28 4.285 3.52 0 5.28-1.428 5.28-4.285v-47.133h58.608v47.745c0 9.386-5.28 16.884-15.84 22.495-10.56 5.611-24.816 8.417-42.768 8.417Zm146.784-140.48v36.727h12.672v-36.727c0-2.448-.352-4.029-1.056-4.744-.704-.714-2.464-1.071-5.28-1.071-4.224 0-6.336 1.939-6.336 5.815Zm73.92 66.414v39.788c0 10.813-5.456 19.23-16.368 25.249-10.912 6.019-25.872 9.029-44.88 9.029h-12.672c-42.24 0-63.36-11.834-63.36-35.503v-97.937c0-11.427 5.368-20.302 16.104-26.627 10.736-6.325 26.488-9.488 47.256-9.488h12.672c18.656 0 33.528 2.857 44.616 8.57 11.088 5.713 16.632 14.69 16.632 26.932v51.724h-73.92v51.417c0 3.265 2.112 4.897 6.336 4.897s6.336-1.632 6.336-4.897v-43.154h61.248Zm96.096 47.439c3.87 0 5.81-1.632 5.81-4.897V257.041c0-3.469-1.94-5.203-5.81-5.203-4.224 0-6.336 1.734-6.336 5.203V362.63c0 3.265 2.112 4.897 6.336 4.897Zm-71.28-140.48h63.888v14.691c14.082-10.814 28.332-16.221 42.772-16.221h1.05c23.59 0 35.38 9.386 35.38 28.157v112.935c0 7.753-3.7 14.231-11.09 19.434-7.39 5.203-16.37 7.805-26.93 7.805h-1.05c-15.14 0-28.16-4.693-39.076-14.079v63.048H925.92v-215.77Zm238.66 167.107h-15.84c-36.96 0-55.44-9.284-55.44-27.851v-39.788h57.55v38.257c0 2.653 1.93 3.979 5.81 3.979 3.87 0 5.8-1.326 5.8-3.979v-30.299c0-4.693-3.16-8.366-9.5-11.018l-27.98-11.018c-11.97-4.693-19.98-9.59-24.03-14.691-4.05-5.101-6.07-11.324-6.07-18.669v-25.709c0-19.179 19.18-28.769 57.55-28.769h14.26c36.25 0 54.38 8.366 54.38 25.097v33.36h-55.97v-31.524c0-2.857-1.76-4.285-5.28-4.285-3.87 0-5.8 1.428-5.8 4.285v25.096c0 2.449.52 4.234 1.58 5.356 1.06 1.123 3.34 2.602 6.86 4.438l29.04 11.324c12.68 5.509 21.21 10.763 25.61 15.762 4.4 4.999 6.6 11.375 6.6 19.129v30.299c0 10.202-5.19 17.955-15.57 23.26-10.39 5.305-24.91 7.958-43.56 7.958ZM203.352 688.635c0 4.285 2.288 6.427 6.864 6.427 4.576 0 6.864-2.142 6.864-6.427v-66.414h65.472v67.332c0 11.222-5.544 20.506-16.632 27.851-11.088 7.345-27.72 11.018-49.896 11.018h-10.56c-47.168 0-70.752-14.181-70.752-42.542V537.749c0-12.65 5.72-22.699 17.16-30.146 11.44-7.447 29.128-11.171 53.064-11.171h11.088c22.528 0 39.248 3.265 50.16 9.794 10.912 6.529 16.368 15.609 16.368 27.239v60.293H217.08v-59.069c0-3.877-2.288-5.815-6.864-5.815-4.576 0-6.864 1.938-6.864 5.815v153.946Z" style="fill:#733299;fill-rule:nonzero;stroke:#733299;stroke-width:.71px" transform="matrix(1 0 0 1.72518 -19.872 -282.93)"/>
  <path d="M307.896 498.574h64.944v227.705h-64.944z" style="fill:#733299;stroke:#733299;stroke-width:.71px" transform="matrix(1 0 0 1.72518 -19.872 -282.93)"/>
  <path d="M469.992 697.816V642.42c-7.392 2.449-11.088 6.122-11.088 11.018v44.378c0 2.857 1.936 4.285 5.808 4.285 3.52 0 5.28-1.428 5.28-4.285Zm-72.864 7.652v-51.111c0-11.631 8.8-19.894 26.4-24.791 10.208-2.856 24.112-6.223 41.712-10.1 3.168-1.02 4.752-2.448 4.752-4.285V587.33c0-2.652-1.936-3.978-5.808-3.978h-.528c-3.872 0-5.808 1.326-5.808 3.978v31.218H399.24v-31.524c0-18.567 20.416-27.851 61.248-27.851h6.864c21.472 0 37.752 2.092 48.84 6.274 11.088 4.183 16.632 11.273 16.632 21.271V694.45c0 1.224 1.056 1.836 3.168 1.836h4.752v29.994H486.36c-10.56 0-15.84-4.489-15.84-13.467-9.856 9.998-23.056 14.997-39.6 14.997h-1.056c-10.208 0-18.216-2.194-24.024-6.58-5.808-4.387-8.712-9.641-8.712-15.762Zm230.736 20.812H562.92V561.622h63.888v14.384c11.968-10.61 25.696-15.915 41.184-15.915h2.64c16.544 0 27.456 5.101 32.736 15.303 11.616-10.202 25.872-15.303 42.768-15.303h2.64c11.616 0 20.152 2.347 25.608 7.04 5.456 4.693 8.184 9.589 8.184 14.69V726.28h-66V593.452c0-3.265-1.76-4.897-5.28-4.897-4.224 0-6.336 1.632-6.336 4.897V726.28H639.48V593.452c0-3.265-1.936-4.897-5.808-4.897s-5.808 1.632-5.808 4.897V726.28ZM885 728.728h-10.56c-44.352 0-66.528-13.364-66.528-40.093v-89.674c0-26.525 22.352-39.788 67.056-39.788h10.56c44.352 0 66.528 13.263 66.528 39.788v89.674c0 13.262-5.808 23.26-17.424 29.993-11.616 6.733-28.16 10.1-49.632 10.1Zm-5.28-28.463c4.576 0 6.864-1.836 6.864-5.509V592.533c0-3.876-2.288-5.815-6.864-5.815-4.224 0-6.336 1.939-6.336 5.815v102.223c0 3.673 2.112 5.509 6.336 5.509Zm162.62-108.65V726.28H977.4V561.622h63.89v14.384c11.26-10.202 23.58-15.302 36.96-15.302h3.69c8.8 0 15.49 1.53 20.07 4.59 4.57 3.061 6.86 6.938 6.86 11.631v59.374h-57.02v-44.684c0-2.448-1.59-3.672-4.75-3.672-3.17 0-4.76 1.224-4.76 3.672Z" style="fill:#733299;fill-rule:nonzero;stroke:#733299;stroke-width:.71px" transform="matrix(1 0 0 1.72518 -19.872 -282.93)"/>
</svg>
